<?xml version="1.0" encoding="iso-8859-1"?>
<!-- Generator: Adobe Illustrator 19.0.0, SVG Export Plug-In . SVG Version: 6.00 Build 0)  -->
<svg version="1.1" id="Layer_1" xmlns="http://www.w3.org/2000/svg" xmlns:xlink="http://www.w3.org/1999/xlink" x="0px" y="0px"
	 viewBox="0 0 479.996 479.996" style="enable-background:new 0 0 479.996 479.996;" xml:space="preserve">
<g>
	<g>
		<g>
			<path d="M478.754,233.882c-5.604-51.358-29.9-98.549-68.414-132.878c-38.228-34.075-87.367-52.841-138.367-52.841
				c-7.391,0-14.883,0.399-22.28,1.186c-6.137,0.042-48.527,1.496-76.494,32.693c-19.278,21.505-27.029,51.634-23.045,89.567
				c-0.259,4.912-0.231,23.005,12.619,37.288c10.505,11.677,26.359,17.597,47.123,17.597c4.33,0,8.94-0.264,13.694-0.782
				c1.304-0.142,2.624-0.213,3.924-0.213c18.257,0,33.53,13.72,35.527,31.904c1.032,9.478-1.696,18.801-7.684,26.25
				c-5.988,7.451-14.512,12.122-24.004,13.154c-19.106,2.087-33.678,9.885-43.309,23.178c-17.201,23.744-11.714,56.629-10.795,61.42
				c3.547,31.768,15.616,55.163,35.878,69.544c14.396,10.217,33.064,15.617,53.987,15.617c13.962,0,24.845-2.388,27.869-3.125
				C408.8,450.627,491.187,347.798,478.754,233.882z M292.119,443.637c-0.514,0.056-1.021,0.152-1.52,0.287
				c-0.099,0.026-10.165,2.643-23.483,2.643c-41.572,0-65.134-22.8-70.031-67.768c-0.034-0.314-0.089-0.651-0.152-0.96
				c-0.058-0.281-5.646-28.328,7.359-46.188c6.266-8.604,15.828-13.498,29.229-14.961c14.799-1.608,28.091-8.891,37.428-20.507
				c9.334-11.614,13.587-26.155,11.976-40.955c-3.113-28.35-26.934-49.729-55.409-49.729c-2.018,0-4.063,0.111-6.087,0.331
				c-4.043,0.441-7.923,0.665-11.532,0.665c-14.755,0.001-25.564-3.645-32.127-10.833c-8.763-9.598-7.635-24.62-7.638-25.336
				c-0.13-32.326,2.487-57.672,17.961-74.932c23.082-25.748,60.332-26.044,61.979-26.044c0.413,0.008,0.83-0.013,1.243-0.058
				c6.857-0.748,13.809-1.127,20.66-1.127c96.106,0,176.455,72.176,186.898,167.889
				C470.134,339.236,395.329,432.359,292.119,443.637z"/>
			<path d="M297.826,177.055c6.85-8.523,9.967-19.196,8.779-30.041c-2.257-20.839-19.741-36.554-40.67-36.554
				c-1.477,0-2.973,0.081-4.459,0.242c-22.444,2.465-38.729,22.72-36.297,45.161c2.275,20.808,19.746,36.499,40.637,36.499
				c1.496,0,3.013-0.083,4.491-0.246C281.195,190.939,290.967,185.59,297.826,177.055z M282.236,164.527
				c-3.509,4.367-8.51,7.104-14.098,7.709c-0.771,0.085-1.553,0.127-2.322,0.127c-10.668,0-19.591-8.028-20.755-18.663
				c-1.243-11.483,7.1-21.853,18.586-23.115c0.761-0.083,1.53-0.124,2.288-0.124c10.695,0,19.632,8.042,20.788,18.719
				C287.33,154.721,285.736,160.172,282.236,164.527z"/>
			<path d="M356.361,234.079c1.463,0,2.945-0.079,4.438-0.239c22.453-2.47,38.728-22.728,36.28-45.15
				c-2.256-20.827-19.742-36.532-40.675-36.532c-1.496,0-3.013,0.083-4.492,0.246c-10.889,1.18-20.664,6.538-27.524,15.087
				c-6.849,8.534-9.958,19.211-8.756,30.06C317.932,218.376,335.443,234.079,356.361,234.079z M339.986,180.009
				c3.511-4.376,8.512-7.118,14.096-7.723c0.771-0.085,1.553-0.128,2.322-0.128c10.699,0,19.638,8.033,20.792,18.694
				c1.253,11.477-7.084,21.843-18.555,23.105c-0.758,0.081-1.525,0.122-2.28,0.122c-10.707,0-19.671-8.05-20.851-18.727
				C334.897,189.819,336.486,184.369,339.986,180.009z"/>
			<path d="M288.138,314.254c-1.475,0-2.968,0.081-4.458,0.242c-22.45,2.471-38.725,22.73-36.28,45.147
				c2.24,20.832,19.729,36.54,40.681,36.54c1.477,0,2.974-0.082,4.465-0.243c22.455-2.467,38.73-22.75,36.279-45.227
				C326.526,329.928,309.035,314.254,288.138,314.254z M290.375,376.058c-0.763,0.083-1.535,0.125-2.295,0.125
				c-10.71,0-19.65-8.03-20.797-18.694c-1.252-11.479,7.085-21.848,18.566-23.111c0.76-0.082,1.53-0.124,2.288-0.124
				c10.686,0,19.632,8.021,20.806,18.643C310.199,364.405,301.863,374.796,290.375,376.058z"/>
			<path d="M367.475,254.028c-1.479,0-2.978,0.081-4.48,0.244c-22.427,2.492-38.698,22.754-36.27,45.172
				c2.265,20.826,19.74,36.531,40.648,36.531c1.496,0,3.012-0.083,4.501-0.247c22.444-2.458,38.729-22.722,36.299-45.185
				C405.893,269.726,388.397,254.028,367.475,254.028z M369.692,315.848c-0.771,0.084-1.551,0.127-2.318,0.127
				c-10.68,0-19.606-8.036-20.766-18.689c-1.243-11.48,7.099-21.859,18.569-23.133c0.764-0.083,1.537-0.125,2.298-0.125
				c10.7,0,19.65,8.036,20.815,18.68C389.535,304.207,381.194,314.588,369.692,315.848z"/>
			<path d="M59.747,7.051c-17.161,0-31.768,20.871-44.654,63.804C5.697,102.158,0.04,136.089,0,150.796
				c-0.076,19.647,9.28,41.809,23.835,56.459c0.503,0.506,1.013,0.99,1.523,1.474c-0.759,1.409-1.19,3.02-1.19,4.732v97.78
				c0,0.079,0.01,0.155,0.012,0.233c0.002,0.079-0.005,0.156-0.001,0.235l7.113,151.704c0.251,5.343,4.657,9.532,9.986,9.532
				c0.055,0,0.11,0,0.165-0.001l34.994-0.569c5.249-0.085,9.538-4.214,9.823-9.456l8.205-150.962
				c0.005-0.088-0.002-0.176,0.001-0.264c0.002-0.093,0.014-0.185,0.014-0.279V213.46c0-1.742-0.447-3.379-1.23-4.805
				c3.139-2.983,6.131-6.377,8.929-10.191c10.268-13.993,16.433-31.664,16.493-47.272c0.052-14.742-5.395-48.739-14.601-80.114
				C91.45,28.056,76.971,7.112,59.747,7.051z M66.797,452.528l-15.98,0.26l-4.334-92.416l25.315,0.139L66.797,452.528z
				 M72.884,340.517l-27.339-0.15l-0.896-19.09l16.421,0.056l12.854,0.044L72.884,340.517z M74.481,301.379l-30.313-0.104V223.46
				h12.718c0.734,0.04,1.47,0.065,2.207,0.067h0.154c0.642,0,1.28-0.038,1.92-0.067h13.314V301.379z M60.739,203.46h-3.221
				c-8.245-0.646-15.096-5.874-19.494-10.302C27.357,182.423,19.946,165.034,20,150.862c0.031-11.334,4.999-43.445,14.247-74.258
				c12.35-41.143,23.255-49.553,25.49-49.553c2.236,0.007,13.056,8.459,25.144,49.658c8.307,28.313,13.837,61.335,13.791,74.409
				C98.585,173.438,80.381,202.061,60.739,203.46z"/>
		</g>
	</g>
</g>
<g>
</g>
<g>
</g>
<g>
</g>
<g>
</g>
<g>
</g>
<g>
</g>
<g>
</g>
<g>
</g>
<g>
</g>
<g>
</g>
<g>
</g>
<g>
</g>
<g>
</g>
<g>
</g>
<g>
</g>
</svg>
