<?xml version="1.0" encoding="utf-8"?>
<!-- Svg Vector Icons : http://www.onlinewebfonts.com/icon -->
<!DOCTYPE svg PUBLIC "-//W3C//DTD SVG 1.1//EN" "http://www.w3.org/Graphics/SVG/1.1/DTD/svg11.dtd">
<svg version="1.1" xmlns="http://www.w3.org/2000/svg" xmlns:xlink="http://www.w3.org/1999/xlink" x="0px" y="0px" viewBox="0 0 1000 1000" enable-background="new 0 0 1000 1000" xml:space="preserve">
<metadata> Svg Vector Icons : http://www.onlinewebfonts.com/icon </metadata>
<g><g transform="translate(0.000000,511.000000) scale(0.100000,-0.100000)"><path d="M2746.6,4924.9c-134.9-61.3-214.6-206.4-214.6-400.6v-122.6h745.9h745.9v147.1c0,177.8-55.2,290.2-179.8,359.7c-77.7,42.9-102.2,45-557.9,45C2932.5,4951.5,2791.5,4945.4,2746.6,4924.9z"/><path d="M4585.9,4311.8c-75.6-34.7-163.5-126.7-192.1-202.3c-14.3-32.7-22.5-220.7-22.5-445.5v-386.3h788.9H5949l-8.2,394.4c-6.1,449.6-24.5,508.9-165.5,602.9l-81.7,55.2l-523.2,4.1C4763.7,4338.4,4632.9,4334.3,4585.9,4311.8z"/><path d="M314.6,4219.9c-45-20.4-98.1-57.2-118.5-79.7c-47-51.1-94-177.8-96.1-253.4v-57.2h1085.2h1085.2l-14.3,87.9c-22.5,134.9-98.1,249.3-200.3,298.4c-85.8,40.9-118.5,42.9-874.7,42.9C463.8,4258.7,390.2,4254.6,314.6,4219.9z"/><path d="M2532,4023.7v-153.3h745.9h745.9v153.3v153.3h-745.9H2532V4023.7z"/><path d="M2532,110v-3515.1h745.9h745.9V110v3515.1h-745.9H2532V110z"/><path d="M100,3441.2v-143.1h1083.1h1083.2v143.1v143.1H1183.1H100V3441.2z"/><path d="M100-237.4v-3290.3h1083.1h1083.2v3290.3v3290.3H1183.1H100V-237.4z"/><path d="M4371.3,2899.6v-153.3h786.8H5947l-6.1,149.2l-6.1,147.1l-780.7,6.1l-782.7,4.1V2899.6z"/><path d="M7150.7,2513.4c-421-104.2-795-204.4-831.8-222.8c-96.1-51.1-155.3-147.1-165.5-271.8c-10.2-120.6,92-580.4,128.8-580.4c36.8,0,2145.9,515,2160.2,529.3c22.5,20.4-114.5,527.3-159.4,588.6c-55.2,75.6-202.3,149.2-294.3,147.1C7949.8,2703.4,7571.7,2617.6,7150.7,2513.4z"/><path d="M4371.3-196.5v-2697.7h786.8h786.8v2697.7v2697.7h-786.8h-786.8V-196.5z"/><path d="M7968.2,1591.7c-286.1-69.5-774.6-190.1-1085.2-265.7l-564.1-136.9l30.7-124.7c16.3-69.5,36.8-132.8,42.9-143.1c12.3-12.3,2158.1,500.7,2180.6,523.2c14.3,12.3-55.2,280-71.5,277.9C8495.4,1722.5,8254.3,1663.2,7968.2,1591.7z"/><path d="M7520.6,929.5c-578.4-141-1054.5-267.7-1058.6-277.9c-8.2-24.5,923.8-3848.3,942.2-3866.7c20.4-22.5,2178.6,510.9,2178.6,537.5c0,20.4-868.6,3594.9-921.7,3795.1c-14.3,51.1-30.6,75.6-55.2,73.6C8587.4,1189.1,8099,1072.6,7520.6,929.5z"/><path d="M8540.4-3204.9c-588.6-145.1-1072.9-265.7-1075-267.7c-6.2-6.1,53.1-267.7,61.3-275.9c6.1-4.1,2043.7,484.4,2160.2,519.1c30.7,8.2,30.7,20.4,0,145.1c-18.4,75.6-42.9,139-53.1,141C9621.5-2941.2,9131.1-3057.7,8540.4-3204.9z"/><path d="M4371.3-3292.7V-3446h786.8h786.8v153.3v153.3h-786.8h-786.8V-3292.7z"/><path d="M8703.9-3719.9c-555.9-136.9-1036.2-255.5-1064.7-263.6l-55.2-14.3l67.4-269.8c38.8-147.1,85.8-292.2,108.3-320.9c55.2-75.6,186-145.1,273.9-145.1c73.6,0,1545,347.4,1657.4,392.4c79.7,30.6,171.7,145.1,198.2,243.2c20.4,73.6,14.3,120.6-40.9,357.6c-51.1,218.7-71.5,273.9-98.1,271.8C9731.9-3468.5,9259.8-3582.9,8703.9-3719.9z"/><path d="M2532-3803.7v-153.3h745.9h745.9v153.3v153.3h-745.9H2532V-3803.7z"/><path d="M4371.3-4071.4c0-378.1,2-406.7,45-482.3c26.6-45,83.8-104.2,130.8-130.8c81.7-49.1,92-49.1,598.8-49.1c588.6,0,627.4,8.2,731.6,167.6l57.2,83.8v400.6v400.5l-780.7,6.1l-782.7,4.1V-4071.4z"/><path d="M100-3926.3v-153.3l1079.1,4.1l1077,6.1l6.1,149.2l6.1,147.1H1183.1H100V-3926.3z"/><path d="M2532-4308.4c2-198.2,87.9-349.5,230.9-402.6c34.7-14.3,245.2-22.5,529.3-22.5c466,0,474.1,0,560,51.1c116.5,69.5,171.7,183.9,171.7,363.8v136.9h-745.9H2532V-4308.4z"/><path d="M100-4369.8c2-100.1,67.4-228.9,155.3-294.3l75.6-59.3l823.6-6.1c790.9-6.1,827.7-4.1,905.3,34.7c94,49,151.2,122.6,183.9,237.1c47,169.6,155.3,153.3-1060.7,153.3H100V-4369.8z"/></g></g>
</svg>