<svg xmlns="http://www.w3.org/2000/svg" xmlns:xlink="http://www.w3.org/1999/xlink" version="1.1" width="256" height="256" viewBox="0 0 256 256" xml:space="preserve">
<desc>Created with Fabric.js 1.7.22</desc>
<defs>
</defs>
<g transform="translate(128 128) scale(0.72 0.72)" style="">
	<g style="stroke: none; stroke-width: 0; stroke-dasharray: none; stroke-linecap: butt; stroke-linejoin: miter; stroke-miterlimit: 10; fill: none; fill-rule: nonzero; opacity: 1;" transform="translate(-175.05 -175.05000000000004) scale(3.89 3.89)" >
	<path d="M 45 84.334 L 6.802 46.136 C 2.416 41.75 0 35.918 0 29.716 c 0 -6.203 2.416 -12.034 6.802 -16.42 c 4.386 -4.386 10.217 -6.802 16.42 -6.802 c 6.203 0 12.034 2.416 16.42 6.802 L 45 18.654 l 5.358 -5.358 c 4.386 -4.386 10.218 -6.802 16.42 -6.802 c 6.203 0 12.034 2.416 16.42 6.802 l 0 0 l 0 0 C 87.585 17.682 90 23.513 90 29.716 c 0 6.203 -2.415 12.034 -6.802 16.42 L 45 84.334 z M 23.222 10.494 c -5.134 0 -9.961 2 -13.592 5.63 S 4 24.582 4 29.716 s 2 9.961 5.63 13.592 L 45 78.678 l 35.37 -35.37 C 84.001 39.677 86 34.85 86 29.716 s -1.999 -9.961 -5.63 -13.592 l 0 0 c -3.631 -3.63 -8.457 -5.63 -13.592 -5.63 c -5.134 0 -9.961 2 -13.592 5.63 L 45 24.311 l -8.187 -8.187 C 33.183 12.494 28.356 10.494 23.222 10.494 z" style="stroke: none; stroke-width: 1; stroke-dasharray: none; stroke-linecap: butt; stroke-linejoin: miter; stroke-miterlimit: 10; fill: rgb(0,0,0); fill-rule: nonzero; opacity: 1;" transform=" matrix(1 0 0 1 0 0) " stroke-linecap="round" />
</g>
</g>
</svg>