<?xml version="1.0"?><svg fill="#000000" xmlns="http://www.w3.org/2000/svg"  viewBox="0 0 24 24" width="24px" height="24px">    <path d="M 5 3 C 3.895 3 3 3.895 3 5 L 3 19 C 3 20.105 3.895 21 5 21 L 19 21 C 20.105 21 21 20.105 21 19 L 21 5 C 21 3.895 20.105 3 19 3 L 5 3 z M 5 5 L 19 5 L 19 19 L 5 19 L 5 5 z M 11.5 7 C 9.015 7 7 9.015 7 11.5 C 7 13.985 9.015 16 11.5 16 C 12.38 16 13.193719 15.737781 13.886719 15.300781 L 16.292969 17.707031 L 17.707031 16.292969 L 15.300781 13.886719 C 15.737781 13.193719 16 12.38 16 11.5 C 16 9.015 13.985 7 11.5 7 z M 11.5 9 C 12.881 9 14 10.119 14 11.5 C 14 12.881 12.881 14 11.5 14 C 10.119 14 9 12.881 9 11.5 C 9 10.119 10.119 9 11.5 9 z"/></svg>