<?xml version="1.0" encoding="iso-8859-1"?>
<!-- Generator: Adobe Illustrator 19.0.0, SVG Export Plug-In . SVG Version: 6.00 Build 0)  -->
<svg version="1.1" id="Layer_1" xmlns="http://www.w3.org/2000/svg" xmlns:xlink="http://www.w3.org/1999/xlink" x="0px" y="0px"
	 viewBox="0 0 512 512" style="enable-background:new 0 0 512 512;" xml:space="preserve">
<g>
	<g>
		<path d="M378.526,0.363l-98.765,19.765V0H173.658h-31.208H36.35v509.726h106.101h31.208h106.101V189.881L344.221,512
			l131.429-26.301L378.526,0.363z M142.451,478.518H67.557v-23.232h74.893V478.518z M142.451,424.078H67.557V31.208h74.893V424.078z
			 M248.552,478.518h-74.893v-23.232h74.893V478.518z M248.553,424.078h-74.893V31.208h74.348l0.545,2.726V424.078z M283.823,51.14
			l70.227-14.054l74.321,371.384l-70.143,14.478L283.823,51.14z M364.351,453.551l70.143-14.478l4.433,22.15l-70.229,14.054
			L364.351,453.551z"/>
	</g>
</g>
<g>
	<g>
		<rect x="84.5" y="63.456" width="41.61" height="31.208"/>
	</g>
</g>
<g>
	<g>
		<rect x="190.617" y="63.456" width="41.61" height="31.208"/>
	</g>
</g>
<g>
	<g>
		<rect x="308.84" y="75.683" transform="matrix(0.9819 -0.1896 0.1896 0.9819 -11.3402 64.0321)" width="40.327" height="31.209"/>
	</g>
</g>
<g>
</g>
<g>
</g>
<g>
</g>
<g>
</g>
<g>
</g>
<g>
</g>
<g>
</g>
<g>
</g>
<g>
</g>
<g>
</g>
<g>
</g>
<g>
</g>
<g>
</g>
<g>
</g>
<g>
</g>
</svg>
